<?xml version="1.0" encoding="UTF-8"?> <svg xmlns="http://www.w3.org/2000/svg" width="780" height="440" viewBox="0 0 780 440"><title>social-media-for-law-firms</title><path fill="#083d4f" d="M0 0h780v440H0z"></path><circle cx="360" cy="220" r="143" fill="#f2f2f9"></circle><path fill="#083d4f" d="M333.1 165.5l23.8-23.8 41.2 41.2-23.8 23.7z"></path><rect x="317.1" y="141.5" width="48.5" height="19.3" rx="3" transform="rotate(-45 341.3 151.1)" fill="#0797ae"></rect><rect x="367.6" y="191.9" width="48.5" height="19.3" rx="3" transform="rotate(-45 391.8 201.6)" fill="#0797ae"></rect><path d="M350.7 269.2v-10.7a3.1 3.1 0 0 1 3-3h67.8a3.1 3.1 0 0 1 3 3v10.7z" fill="#0797ae"></path><path fill="#083d4f" d="M340.4 268.6h93.5v19.3h-93.5zM265.9 263.4l85.7-85.7 13.6 13.6-85.7 85.7z"></path><path d="M594.5 241.7h-3v-5.5l-8.6 8.6 8.6 8.6v-5.5h4.2a8 8 0 0 1 6.9 3.7v-1.7a8.2 8.2 0 0 0-8.1-8.2zM476.6 192.9l5.9 7.3h-3.9v4.5h5.1a1.7 1.7 0 0 1 1.8 1.7 1.8 1.8 0 0 1-1.8 1.7h-9.1v-7.9h-3.9zM491.1 208.1l-5.9-7.4h3.9v-4.4H484a1.8 1.8 0 0 1-1.8-1.7 1.7 1.7 0 0 1 1.8-1.7h9.1v7.8h3.9zM600.4 197.3a3.4 3.4 0 0 0-4.5-4.5 3.3 3.3 0 0 0-6.3 0 3.4 3.4 0 0 0-4.5 4.5 3.4 3.4 0 0 0 0 6.3 8.3 8.3 0 0 0 10.8 4.5 3.4 3.4 0 0 0 4.5-4.5 3.4 3.4 0 0 0 0-6.3zm-9 7.2h-.2l-3.4-3.5 1.7-1.7 2 1.9 4.7-4.7 1.5 1.7zM492.4 239.5a5.4 5.4 0 0 0-7.6 0l-.7.6-.7-.6a5.4 5.4 0 0 0-7.6 0 5.4 5.4 0 0 0 0 7.6l.7.6 7.6 7.6 7.6-7.6.7-.6a5.4 5.4 0 0 0 0-7.6zM533.6 242.7h-2.8v-2.8h-1.4v2.8h-2.8v1.3h2.8v2.8h1.4V244h2.8zm11.6 5.9a6.6 6.6 0 0 1-2.1-.8 1.1 1.1 0 0 1-.2-1.4c.4-1.2 1.7-1.5 1.7-4.9s-3.7-4.5-4.1-4.5-4 0-4 4.5 1.2 3.9 1.7 5.1a1 1 0 0 1-.3 1.3 10.2 10.2 0 0 1-2.1.8c-1.2.4-3.6.8-3.6 2.7v1h16.6v-1c0-1.9-2.3-2.3-3.6-2.8z" fill="#0797ae"></path><path fill="none" stroke="#0797ae" stroke-miterlimit="10" stroke-width="2" d="M458 177h162v45.9H458zM458 223h162v45.9H458zM512 269v-92M566 269v-92M620 223v-46"></path><path d="M549 202.9a1.9 1.9 0 0 1-1.9 1.9h-14.5l-3.5 3.8a.4.4 0 0 1-.6-.3v-14.4a1.9 1.9 0 0 1 1.9-1.9h16.7a2 2 0 0 1 1.9 1.9z" fill="#0797ae"></path></svg> 