<?xml version="1.0" encoding="UTF-8" standalone="no"?>
<!DOCTYPE svg PUBLIC "-//W3C//DTD SVG 1.1//EN" "http://www.w3.org/Graphics/SVG/1.1/DTD/svg11.dtd">
<svg version="1.1" xmlns="http://www.w3.org/2000/svg" xmlns:xlink="http://www.w3.org/1999/xlink" preserveAspectRatio="xMidYMid meet" viewBox="0 0 640 640" width="640" height="640"><defs><path d="M479.43 97.7C490.79 97.7 500 106.91 500 118.28C500 130.62 500 147.08 500 159.43C500 170.79 490.79 180 479.43 180C403.54 180 196.46 180 120.57 180C109.21 180 100 170.79 100 159.43C100 147.08 100 130.62 100 118.28C100 106.91 109.21 97.7 120.57 97.7C196.46 97.7 403.54 97.7 479.43 97.7Z" id="baqgLq3uD"></path><path d="M320 195.29L340 155.29L300 155.29L260 155.29L280 195.29L300 235.29L320 195.29Z" id="a3pJ158EQs"></path></defs><g><g><g><use xlink:href="#baqgLq3uD" opacity="1" fill="#13ec15" fill-opacity="1"></use></g><g><use xlink:href="#a3pJ158EQs" opacity="1" fill="#13ec15" fill-opacity="1"></use></g></g></g></svg>